# xmcd
#
# Track frame offsets:
#	150
#	16541
#	36337
#	50778
#	66277
#	84072
#	100897
#	113011
#	130791
#	149113
#	166888
#	186712
#	198898
#	213549
#	226852
#	240236
#	256673
#	273885
#	290535
#	307929
#
# Disc length: 4542 seconds
#
# Revision: 1
# Processed by: cddbd v1.5.2PL0 Copyright (c) Steve Scherf et al.
# Submitted via: audiograbber 1.83.01
#
DISCID=1311bc14
DTITLE=The Sunny Cowgirls - Live In Concert
DYEAR=2011
DGENRE=country
TTITLE0=SUMMER
TTITLE1=DRINKING DOWN OUR PAY
TTITLE2=DANCING ON THE DARLING
TTITLE3=SIX PACK SHORT
TTITLE4=LITTLE BIT RUSTY
TTITLE5=NAUGHTY SIDE
TTITLE6=GET ON IT
TTITLE7=ACTING STUPID
TTITLE8=PINK GALAHS
TTITLE9=GOOD SPOT HERE
TTITLE10=STILL CIRCLING with Courtney Murphy
TTITLE11=RABBIT
TTITLE12=NOT MY GUY
TTITLE13=ROUSY'S LIFE
TTITLE14=BAGS NOT DRIVING
TTITLE15=GROG MONSTER
TTITLE16=DRIVING MY LIFE AWAY
TTITLE17=PICK ME UP
TTITLE18=CUTTIN UP B&S STYLE
TTITLE19=I'VE BEEN EVERYWHERE
EXTD=
EXTT0=
EXTT1=
EXTT2=
EXTT3=
EXTT4=
EXTT5=
EXTT6=
EXTT7=
EXTT8=
EXTT9=
EXTT10=
EXTT11=
EXTT12=
EXTT13=
EXTT14=
EXTT15=
EXTT16=
EXTT17=
EXTT18=
EXTT19=
PLAYORDER=
